<?xml version="1.0" standalone="no"?>
<!DOCTYPE svg PUBLIC "-//W3C//DTD SVG 20010904//EN"
 "http://www.w3.org/TR/2001/REC-SVG-20010904/DTD/svg10.dtd">
<svg version="1.0" xmlns="http://www.w3.org/2000/svg"
 width="168.000000pt" height="212.000000pt" viewBox="0 0 168.000000 212.000000"
 preserveAspectRatio="xMidYMid meet">
<metadata>
Created by potrace 1.15, written by Peter Selinger 2001-2017
</metadata>
<g transform="translate(0.000000,212.000000) scale(0.100000,-0.100000)"
fill="#000000" stroke="none">
<path d="M861 1899 c-137 -35 -165 -51 -190 -104 -44 -93 -122 -291 -179 -450
-34 -93 -92 -249 -131 -345 -57 -143 -74 -176 -93 -182 -13 -3 -69 -6 -125 -7
-97 -1 -103 -2 -103 -21 0 -37 41 -144 81 -213 l40 -67 -25 -68 c-13 -37 -33
-88 -45 -115 l-20 -47 42 -27 c48 -30 203 -104 260 -124 49 -17 50 -17 117
149 28 70 55 137 60 150 10 22 10 22 247 22 131 0 244 -4 251 -9 8 -5 37 -78
66 -162 43 -126 56 -155 73 -157 15 -2 316 91 461 143 10 4 7 16 -12 47 -22
39 -176 495 -351 1038 -78 244 -198 560 -217 571 -24 16 -92 8 -207 -22z m19
-700 c18 -99 71 -340 86 -391 5 -17 -6 -18 -135 -18 -99 0 -141 3 -141 11 0 7
29 96 64 198 34 102 71 216 81 254 10 37 20 66 22 64 1 -2 12 -55 23 -118z"/>
</g>
</svg>
